<svg viewBox="0 0 800 600" xmlns="http://www.w3.org/2000/svg">
  <defs>
    <style>
      @keyframes float {
        0%, 100% { transform: translateY(0px); }
        50% { transform: translateY(-20px); }
      }
      @keyframes pulse {
        0%, 100% { opacity: 1; }
        50% { opacity: 0.7; }
      }
      @keyframes rotate {
        0% { transform: rotate(0deg); }
        100% { transform: rotate(360deg); }
      }
      @keyframes slideIn {
        0% { transform: translateX(-50px); opacity: 0; }
        100% { transform: translateX(0); opacity: 1; }
      }
      
      .float-animation { animation: float 3s ease-in-out infinite; }
      .pulse-animation { animation: pulse 2s ease-in-out infinite; }
      .rotate-animation { animation: rotate 20s linear infinite; }
      .slide-in-animation { animation: slideIn 0.6s ease-out; }
    </style>
    
    <linearGradient id="grad1" x1="0%" y1="0%" x2="100%" y2="100%">
      <stop offset="0%" style="stop-color:#3B82F6;stop-opacity:1" />
      <stop offset="100%" style="stop-color:#8B5CF6;stop-opacity:1" />
    </linearGradient>
    
    <linearGradient id="grad2" x1="0%" y1="0%" x2="100%" y2="100%">
      <stop offset="0%" style="stop-color:#EC4899;stop-opacity:1" />
      <stop offset="100%" style="stop-color:#F97316;stop-opacity:1" />
    </linearGradient>
  </defs>
  
  <!-- Floating background circles -->
  <circle cx="100" cy="80" r="60" fill="url(#grad1)" opacity="0.15" class="float-animation" />
  <circle cx="700" cy="500" r="80" fill="url(#grad2)" opacity="0.15" class="float-animation" style="animation-delay: 1s;" />
  
  <!-- Rotating elements -->
  <g class="rotate-animation" style="transform-origin: 400px 300px;">
    <circle cx="400" cy="100" r="15" fill="#3B82F6" opacity="0.4" />
    <circle cx="700" cy="300" r="12" fill="#8B5CF6" opacity="0.4" />
    <circle cx="100" cy="500" r="18" fill="#EC4899" opacity="0.4" />
  </g>
  
  <!-- Main Teacher Character -->
  <g class="slide-in-animation">
    <!-- Teacher Head -->
    <circle cx="200" cy="150" r="35" fill="#FDB833" />
    
    <!-- Teacher Hair -->
    <path d="M 165 140 Q 165 110 200 110 Q 235 110 235 140" fill="#3E2723" />
    
    <!-- Teacher Face -->
    <circle cx="190" cy="150" r="5" fill="#333" />
    <circle cx="210" cy="150" r="5" fill="#333" />
    <path d="M 190 165 Q 200 172 210 165" stroke="#333" stroke-width="2" fill="none" />
    
    <!-- Teacher Body -->
    <rect x="170" y="185" width="60" height="70" rx="10" fill="#4CAF50" />
    
    <!-- Teacher Arms -->
    <line x1="170" y1="200" x2="130" y2="220" stroke="#FDB833" stroke-width="12" stroke-linecap="round" class="pulse-animation" />
    <line x1="230" y1="200" x2="270" y2="220" stroke="#FDB833" stroke-width="12" stroke-linecap="round" class="pulse-animation" style="animation-delay: 0.5s;" />
    
    <!-- Teacher Legs -->
    <line x1="185" y1="255" x2="185" y2="320" stroke="#333" stroke-width="10" stroke-linecap="round" />
    <line x1="215" y1="255" x2="215" y2="320" stroke="#333" stroke-width="10" stroke-linecap="round" />
  </g>
  
  <!-- Student Character -->
  <g class="slide-in-animation" style="animation-delay: 0.2s;">
    <!-- Student Head -->
    <circle cx="550" cy="180" r="32" fill="#FFCC99" />
    
    <!-- Student Hair -->
    <path d="M 518 170 Q 518 145 550 145 Q 582 145 582 170" fill="#000" />
    
    <!-- Student Face -->
    <circle cx="540" cy="180" r="4" fill="#333" />
    <circle cx="560" cy="180" r="4" fill="#333" />
    <path d="M 540 192 Q 550 198 560 192" stroke="#333" stroke-width="1.5" fill="none" />
    
    <!-- Student Body -->
    <rect x="525" y="212" width="50" height="65" rx="8" fill="#FF6B6B" />
    
    <!-- Student Arms -->
    <line x1="525" y1="230" x2="490" y2="250" stroke="#FFCC99" stroke-width="10" stroke-linecap="round" class="pulse-animation" style="animation-delay: 0.3s;" />
    <line x1="575" y1="230" x2="610" y2="250" stroke="#FFCC99" stroke-width="10" stroke-linecap="round" class="pulse-animation" style="animation-delay: 0.8s;" />
    
    <!-- Student Legs -->
    <line x1="540" y1="277" x2="540" y2="330" stroke="#333" stroke-width="9" stroke-linecap="round" />
    <line x1="565" y1="277" x2="565" y2="330" stroke="#333" stroke-width="9" stroke-linecap="round" />
  </g>
  
  <!-- Book illustration -->
  <g class="float-animation" style="animation-delay: 0.5s;">
    <rect x="350" y="200" width="80" height="120" rx="5" fill="url(#grad2)" />
    <rect x="360" y="210" width="60" height="100" fill="#fff" opacity="0.9" />
    <line x1="390" y1="220" x2="390" y2="300" stroke="#3B82F6" stroke-width="2" opacity="0.5" />
    <line x1="375" y1="230" x2="405" y2="230" stroke="#8B5CF6" stroke-width="1.5" opacity="0.6" />
    <line x1="375" y1="245" x2="405" y2="245" stroke="#8B5CF6" stroke-width="1.5" opacity="0.6" />
    <line x1="375" y1="260" x2="405" y2="260" stroke="#8B5CF6" stroke-width="1.5" opacity="0.6" />
    <line x1="375" y1="275" x2="405" y2="275" stroke="#8B5CF6" stroke-width="1.5" opacity="0.6" />
  </g>
  
  <!-- Decorative stars with pulse -->
  <g class="pulse-animation">
    <polygon points="700,120 710,145 735,145 715,160 725,185 700,170 675,185 685,160 665,145 690,145" fill="#FFD700" />
  </g>
  
  <g class="pulse-animation" style="animation-delay: 0.7s;">
    <polygon points="150,450 158,470 180,470 163,483 171,503 150,490 129,503 137,483 120,470 142,470" fill="#FFD700" />
  </g>
  
  <!-- Light bulb (idea) -->
  <g class="float-animation" style="animation-delay: 0.8s;">
    <circle cx="650" cy="420" r="20" fill="#FDB833" />
    <path d="M 640 440 L 660 440 L 655 460 L 645 460 Z" fill="#333" />
    <line x1="647" y1="460" x2="653" y2="475" stroke="#333" stroke-width="3" stroke-linecap="round" />
  </g>
</svg>